<svg width="18" height="18" viewBox="0 0 18 18" fill="none" xmlns="http://www.w3.org/2000/svg">
<path d="M16.8439 3.08145L14.5559 0.795508C14.2766 0.516211 13.9027 0.359375 13.5074 0.359375C13.1121 0.359375 12.7383 0.514063 12.459 0.795508L9.99473 3.25547C9.71543 3.53477 9.55859 3.91074 9.55859 4.30606C9.55859 4.70352 9.71328 5.0752 9.99473 5.35664L11.9197 7.28379C11.4812 8.30556 10.8511 9.23392 10.0635 10.0187C9.275 10.8115 8.35332 11.4367 7.33066 11.8793L5.40566 9.95215C5.12637 9.67285 4.75254 9.51602 4.35723 9.51602C4.16224 9.51529 3.96907 9.5535 3.78904 9.62839C3.60901 9.70328 3.44574 9.81335 3.30879 9.95215L0.842383 12.4121C0.563086 12.6914 0.40625 13.0674 0.40625 13.4627C0.40625 13.8602 0.560938 14.2318 0.842383 14.5133L3.12832 16.7992C3.60527 17.2762 4.2627 17.549 4.9373 17.549C5.07695 17.549 5.2123 17.5383 5.3498 17.5146C8.19434 17.0463 11.0174 15.5316 13.2969 13.2543C15.5742 10.9727 17.0867 8.14961 17.5594 5.30293C17.6947 4.49512 17.424 3.66367 16.8439 3.08145ZM16.0361 5.04727C15.6172 7.58027 14.2551 10.1068 12.2033 12.1586C10.1516 14.2104 7.62715 15.5725 5.09414 15.9914C4.77617 16.0451 4.44961 15.9377 4.21758 15.7078L1.97246 13.4627L4.35293 11.0801L6.92676 13.6582L6.94609 13.6775L7.41016 13.5057C8.81723 12.9883 10.095 12.1712 11.1549 11.111C12.2147 10.0507 13.0314 8.77268 13.5482 7.36543L13.7201 6.90137L11.1248 4.3082L13.5053 1.92559L15.7504 4.1707C15.9824 4.40273 16.0898 4.7293 16.0361 5.04727Z" fill="#CFAD7D"/>
</svg>
