<svg width="20" height="22" viewBox="0 0 20 22" fill="none" xmlns="http://www.w3.org/2000/svg">
<path d="M18.9751 9.91004L16.2502 7.48792V3.7617L13.1235 0.63501H4.65927V6.08956H1.59109C1.31994 6.08987 1.05999 6.19772 0.868258 6.38945C0.676528 6.58118 0.568675 6.84114 0.568359 7.11228V20.0668C0.568675 20.338 0.676528 20.5979 0.868258 20.7897C1.05999 20.9814 1.31994 21.0892 1.59109 21.0896H19.3184V10.6745C19.3183 10.5301 19.2877 10.3873 19.2285 10.2555C19.1693 10.1238 19.083 10.006 18.9751 9.91004ZM4.65927 19.7259H1.932V7.45319H4.65927V19.7259ZM12.1593 1.99865H12.5587L14.8865 4.3265V4.72592H12.1593V1.99865ZM6.0229 1.99865H10.7956V6.08956H14.8865V9.15774H6.0229V1.99865ZM17.9547 19.7259H6.0229V10.5214H16.2502V9.31238L17.9547 10.8276V19.7259Z" fill="#CFAD7D"/>
<path d="M8.06836 14.6123H9.432V15.9759H8.06836V14.6123Z" fill="#CFAD7D"/>
<path d="M10.7959 14.6123H12.1595V15.9759H10.7959V14.6123Z" fill="#CFAD7D"/>
<path d="M8.06836 17.3396H9.432V18.7032H8.06836V17.3396Z" fill="#CFAD7D"/>
<path d="M10.7959 17.3396H12.1595V18.7032H10.7959V17.3396Z" fill="#CFAD7D"/>
<path d="M13.5225 14.6123H14.8861V15.9759H13.5225V14.6123Z" fill="#CFAD7D"/>
<path d="M13.5225 17.3396H14.8861V18.7032H13.5225V17.3396Z" fill="#CFAD7D"/>
<path d="M8.06836 11.885H14.8865V13.2486H8.06836V11.885Z" fill="#CFAD7D"/>
</svg>
