<svg width="22" height="18" viewBox="0 0 22 18" fill="none" xmlns="http://www.w3.org/2000/svg">
<path d="M20.75 0.703125H1.25C0.835156 0.703125 0.5 1.03828 0.5 1.45312V16.4531C0.5 16.868 0.835156 17.2031 1.25 17.2031H20.75C21.1648 17.2031 21.5 16.868 21.5 16.4531V1.45312C21.5 1.03828 21.1648 0.703125 20.75 0.703125ZM19.8125 3.3V15.5156H2.1875V3.3L1.54063 2.79609L2.46172 1.6125L3.46484 2.39297H18.5375L19.5406 1.6125L20.4617 2.79609L19.8125 3.3ZM18.5375 2.39062L11 8.25L3.4625 2.39062L2.45938 1.61016L1.53828 2.79375L2.18516 3.29766L10.1914 9.52266C10.4217 9.70153 10.7049 9.79863 10.9965 9.79863C11.2881 9.79863 11.5713 9.70153 11.8016 9.52266L19.8125 3.3L20.4594 2.79609L19.5383 1.6125L18.5375 2.39062Z" fill="#CFAD7D"/>
</svg>
