<svg width="42" height="43" viewBox="0 0 42 43" fill="none" xmlns="http://www.w3.org/2000/svg">
<path d="M40.0547 12.8318C40.5142 12.5255 40.6384 11.9046 40.3321 11.4451C40.0257 10.9855 39.4048 10.8614 38.9453 11.1677L40.0547 12.8318ZM20 24.9998H19V26.8683L20.5547 25.8318L20 24.9998ZM38.9453 11.1677L19.4453 24.1677L20.5547 25.8318L40.0547 12.8318L38.9453 11.1677ZM21 24.9998V1.99976H19V24.9998H21Z" fill="#CFAD7D"/>
<path d="M41 21.998C41.0219 33.4444 32.4535 41.998 21.2623 41.998C10.0711 41.998 1 33.0857 1 22.0903C1 11.0949 9.80877 1.99805 21 1.99805" stroke="#CFAD7D" stroke-width="2" stroke-miterlimit="10"/>
<path d="M26 2.11485C33.3157 2.07324 39.3928 6.37709 39.4242 11.8887" stroke="#CFAD7D" stroke-width="2" stroke-miterlimit="10"/>
</svg>
