<svg width="44" height="35" viewBox="0 0 44 35" fill="none" xmlns="http://www.w3.org/2000/svg">
<path d="M2 33.3077L1.19237 32.718L0.0316443 34.3077H2V33.3077ZM16.1538 13.9231L16.7855 13.1478L15.968 12.4818L15.3462 13.3334L16.1538 13.9231ZM24.4615 20.6923L23.8299 21.4675L24.5718 22.0721L25.2083 21.3574L24.4615 20.6923ZM42.9983 0.942245C42.9664 0.390882 42.4936 -0.0302278 41.9422 0.00166917L32.9573 0.521461C32.4059 0.553358 31.9848 1.02618 32.0167 1.57755C32.0486 2.12891 32.5214 2.55002 33.0728 2.51812L41.0594 2.05609L41.5215 10.0427C41.5534 10.5941 42.0262 11.0152 42.5775 10.9833C43.1289 10.9514 43.55 10.4786 43.5181 9.92722L42.9983 0.942245ZM42 32.3077H2V34.3077H42V32.3077ZM2.80763 33.8974L16.9615 14.5128L15.3462 13.3334L1.19237 32.718L2.80763 33.8974ZM15.5222 14.6983L23.8299 21.4675L25.0932 19.9171L16.7855 13.1478L15.5222 14.6983ZM25.2083 21.3574L42.7468 1.66509L41.2532 0.334912L23.7148 20.0272L25.2083 21.3574Z" fill="#CFAD7D"/>
</svg>
